
<svg xmlns="http://www.w3.org/2000/svg" version="1.1" xmlns:xlink="http://www.w3.org/1999/xlink" preserveAspectRatio="none" x="0px" y="0px" width="1000px" height="1000px" viewBox="0 0 1000 1000">
<defs>
<g id="Layer0_0_FILL">
<path fill="#000000" stroke="none" d="
M 1000 500
Q 1000 292.9 853.55 146.4 707.15 0 500 0 292.9 0 146.4 146.4 0 292.9 0 500 0 707.15 146.4 853.55 292.9 1000 500 1000 707.15 1000 853.55 853.55 1000 707.15 1000 500 Z"/>
</g>

<g id="Layer0_1_MEMBER_0_FILL">
<path fill="#FFFFFF" stroke="none" d="
M 790 237.2
Q 790 234.2 787.95 232.15 785.8 230 782.8 230 779.85 230 777.8 232.15 775.65 234.2 775.65 237.2
L 775.65 375.65 648.6 502.65 648.6 237.2
Q 648.6 234.2 646.5 232.15 644.35 230 641.4 230
L 358.6 230
Q 355.65 230 353.55 232.15 351.4 234.2 351.4 237.2
L 351.4 361.25 222.3 232.15
Q 220.15 230 217.2 230 214.2 230 212.15 232.15 210 234.2 210 237.2 210 240.15 212.15 242.3
L 351.4 381.55 351.4 502.65 222.3 373.55
Q 220.15 371.4 217.2 371.4 214.2 371.4 212.15 373.55 210 375.65 210 378.6 210 381.55 212.15 383.7
L 341.25 512.8 217.2 512.8
Q 214.2 512.8 212.15 514.95 210 517.05 210 520 210 522.95 212.15 525.1 214.2 527.2 217.2 527.2
L 351.4 527.2 351.4 802.8
Q 351.4 805.8 353.55 807.95 355.65 810 358.6 810 361.55 810 363.7 807.95 365.75 805.8 365.75 802.8
L 365.75 527.2 641.4 527.2
Q 644.35 527.2 646.5 525.1
L 787.95 383.7
Q 790 381.55 790 378.6
L 790 237.2
M 365.75 244.35
L 634.2 244.35 634.2 512.8 365.75 512.8 365.75 244.35
M 475.3 353.9
Q 464.6 364.5 464.6 378.6 464.6 393.5 475.3 403.35 485.9 413.95 500 413.95 514.9 413.95 524.8 403.35 535.35 393.5 535.35 378.6 535.35 364.5 524.8 353.9 514.9 343.2 500 343.2 485.9 343.2 475.3 353.9 Z"/>
</g>

<path id="Layer0_1_MEMBER_0_1_STROKES" stroke="#FFFFFF" stroke-width="10" stroke-linejoin="round" stroke-linecap="round" fill="none" d="
M 646.5 525.1
L 787.95 383.7
Q 790 381.55 790 378.6
L 790 237.2
Q 790 234.2 787.95 232.15 785.8 230 782.8 230 779.85 230 777.8 232.15 775.65 234.2 775.65 237.2
L 775.65 375.65 648.6 502.65 648.6 237.2
Q 648.6 234.2 646.5 232.15 644.35 230 641.4 230
L 358.6 230
Q 355.65 230 353.55 232.15 351.4 234.2 351.4 237.2
L 351.4 361.25 222.3 232.15
Q 220.15 230 217.2 230 214.2 230 212.15 232.15 210 234.2 210 237.2 210 240.15 212.15 242.3
L 351.4 381.55 351.4 502.65 222.3 373.55
Q 220.15 371.4 217.2 371.4 214.2 371.4 212.15 373.55 210 375.65 210 378.6 210 381.55 212.15 383.7
L 341.25 512.8 217.2 512.8
Q 214.2 512.8 212.15 514.95 210 517.05 210 520 210 522.95 212.15 525.1 214.2 527.2 217.2 527.2
L 351.4 527.2 351.4 802.8
Q 351.4 805.8 353.55 807.95 355.65 810 358.6 810 361.55 810 363.7 807.95 365.75 805.8 365.75 802.8
L 365.75 527.2 641.4 527.2
Q 644.35 527.2 646.5 525.1 Z
M 535.35 378.6
Q 535.35 393.5 524.8 403.35 514.9 413.95 500 413.95 485.9 413.95 475.3 403.35 464.6 393.5 464.6 378.6 464.6 364.5 475.3 353.9 485.9 343.2 500 343.2 514.9 343.2 524.8 353.9 535.35 364.5 535.35 378.6 Z
M 634.2 244.35
L 634.2 512.8 365.75 512.8 365.75 244.35 634.2 244.35 Z"/>
</defs>

<g transform="matrix( 1, 0, 0, 1, 0,0) ">
<use xlink:href="#Layer0_0_FILL"/>
</g>

<g transform="matrix( 1, 0, 0, 1, 0,0) ">
<use xlink:href="#Layer0_1_MEMBER_0_FILL"/>

<use xlink:href="#Layer0_1_MEMBER_0_1_STROKES"/>
</g>
</svg>
